<svg width="512" height="512" viewBox="0 0 512 512" fill="none" xmlns="http://www.w3.org/2000/svg">
  <!-- Background -->
  <rect width="512" height="512" rx="64" fill="#1a1a1a"/>
  
  <!-- Main building icon -->
  <path d="M128 384V192L256 128L384 192V384H128Z" fill="#ffffff" stroke="#ffffff" stroke-width="4"/>
  
  <!-- Building details -->
  <rect x="160" y="240" width="32" height="32" fill="#1a1a1a"/>
  <rect x="240" y="240" width="32" height="32" fill="#1a1a1a"/>
  <rect x="320" y="240" width="32" height="32" fill="#1a1a1a"/>
  
  <rect x="160" y="304" width="32" height="32" fill="#1a1a1a"/>
  <rect x="240" y="304" width="32" height="32" fill="#1a1a1a"/>
  <rect x="320" y="304" width="32" height="32" fill="#1a1a1a"/>
  
  <!-- AI indicator -->
  <circle cx="256" cy="160" r="24" fill="#22c55e"/>
  <circle cx="256" cy="160" r="8" fill="#ffffff"/>
  
  <!-- Search indicator -->
  <circle cx="368" cy="144" r="16" stroke="#22c55e" stroke-width="4" fill="none"/>
  <path d="M380 156L392 168" stroke="#22c55e" stroke-width="4" stroke-linecap="round"/>
  
  <!-- Location pin -->
  <path d="M144 144C144 128 156.8 115.2 172.8 115.2C188.8 115.2 201.6 128 201.6 144C201.6 160 172.8 192 172.8 192S144 160 144 144Z" fill="#ef4444"/>
  <circle cx="172.8" cy="144" r="8" fill="#ffffff"/>
</svg>